<svg width="40" height="20" viewBox="0 0 40 20" fill="none" xmlns="http://www.w3.org/2000/svg">
<g clip-path="url(#clip0_1_9)">
<path opacity="0.75" d="M39.4001 11.375L30.6401 19.5C30.3721 19.7481 30.0378 19.9127 29.6778 19.9738C29.3178 20.0349 28.9478 19.9898 28.6131 19.844C28.2882 19.7058 28.0096 19.4776 27.8101 19.1864C27.6106 18.8951 27.4985 18.5529 27.4871 18.2L27.4871 12.5L2.50006 12.5C2.16628 12.4981 1.83623 12.4298 1.52913 12.299C1.22203 12.1682 0.94403 11.9776 0.711338 11.7383C0.478647 11.499 0.295917 11.2158 0.1738 10.9052C0.0516826 10.5945 -0.00737853 10.2627 5.90509e-05 9.92901C-0.00416727 9.60281 0.0581528 9.27917 0.183212 8.97787C0.308272 8.67656 0.493445 8.40392 0.72742 8.17659C0.961396 7.94926 1.23926 7.77202 1.54404 7.65569C1.84882 7.53936 2.17412 7.48639 2.50006 7.50001L27.4921 7.50001L27.4921 1.87501C27.4924 1.50996 27.5991 1.15293 27.7992 0.847621C27.9993 0.542314 28.2841 0.301986 28.6188 0.156065C28.9534 0.0101427 29.3233 -0.03504 29.6832 0.0260487C30.0431 0.0871375 30.3773 0.251846 30.6451 0.500008L39.4001 8.62501C39.5899 8.80021 39.7414 9.01283 39.8451 9.24948C39.9487 9.48612 40.0022 9.74167 40.0022 10C40.0022 10.2584 39.9487 10.5139 39.8451 10.7505C39.7414 10.9872 39.5899 11.1998 39.4001 11.375Z" fill="white"/>
</g>
<defs>
<clipPath id="clip0_1_9">
<rect width="40.002" height="20" fill="white" transform="translate(40.002 20) rotate(-180)"/>
</clipPath>
</defs>
</svg>
