<svg width="40" height="20" viewBox="0 0 40 20" fill="none" xmlns="http://www.w3.org/2000/svg">
<g clip-path="url(#clip0_1_7)">
<path opacity="0.75" d="M0.602058 8.625L9.36206 0.499998C9.62997 0.251915 9.96436 0.0872612 10.3243 0.0261688C10.6843 -0.0349236 11.0543 0.010191 11.3891 0.155998C11.7139 0.294207 11.9925 0.522387 12.192 0.813656C12.3915 1.10493 12.5036 1.44715 12.5151 1.8L12.5151 7.5L37.5021 7.5C37.8358 7.50191 38.1659 7.57023 38.473 7.701C38.7801 7.83177 39.0581 8.02236 39.2908 8.26165C39.5235 8.50095 39.7062 8.78418 39.8283 9.09482C39.9504 9.40546 40.0095 9.7373 40.0021 10.071C40.0063 10.3972 39.944 10.7208 39.8189 11.0221C39.6938 11.3234 39.5087 11.5961 39.2747 11.8234C39.0407 12.0507 38.7629 12.228 38.4581 12.3443C38.1533 12.4606 37.828 12.5136 37.5021 12.5L12.5101 12.5V18.125C12.5098 18.49 12.403 18.8471 12.2029 19.1524C12.0028 19.4577 11.718 19.698 11.3834 19.8439C11.0488 19.9899 10.6789 20.035 10.319 19.974C9.95906 19.9129 9.62478 19.7482 9.35706 19.5L0.602058 11.375C0.412201 11.1998 0.260685 10.9872 0.157055 10.7505C0.0534248 10.5139 -7.62939e-05 10.2583 -7.62939e-05 10C-7.62939e-05 9.74166 0.0534248 9.48611 0.157055 9.24947C0.260685 9.01282 0.412201 8.8002 0.602058 8.625Z" fill="white"/>
</g>
<defs>
<clipPath id="clip0_1_7">
<rect width="40.002" height="20" fill="white"/>
</clipPath>
</defs>
</svg>
